<?xml version="1.0" encoding="UTF-8"?>
<!-- Generator: Adobe Illustrator 23.0.6, SVG Export Plug-In . SVG Version: 6.00 Build 0)  -->
<svg id="Ebene_1" enable-background="new 0 0 203.4 166.5" version="1.1" viewBox="0 0 203.4 166.5" xml:space="preserve" xmlns="http://www.w3.org/2000/svg">
<style type="text/css">
	.st0{fill:#007D31;}
</style>

	<path class="st0" d="m192.9 14 2.6-8.2 6.7 2.7s-1.3-8.6-10.1-8.6h-13.2c7.7 0.1 14 6.4 14 14.1z"/>
	<path class="st0" d="m105.1 15.5s-0.7-3.5-4.4-3.5-4.4 3.4-4.4 3.4l-15.6 55.7h-0.3l-13.2-59c-0.3-1.4-1.5-2.4-2.9-2.4h-26.2c-1.4 0-2.6 1-2.9 2.3l-35.1 150.2c-0.5 1.9 1 3.7 2.9 3.7h17.9c1.4 0 2.7-1 2.9-2.4l27-126.7h0.3l15.2 57.4c0.3 1.4 1.5 2.3 2.9 2.3h24.3c1.4 0 2.5-0.9 2.9-2.2l15.2-51.6-1.7-7.1-4.8-20.1z"/>
	<path class="st0" d="m202.1 69.9-12.8-52.6c-0.7-2.9-0.4-5.5 0.3-7.7-2.1-4.3-6.6-7.5-11.7-7.5-5.2 0-9.8 3.3-11.8 7.7-1.1 2.3-1.3 4.9-0.7 7.4l12 49.8c3.6 14.1-2.2 17.7-10.8 17.7-8.8 0-17.7-3.6-21.1-17.2-4.6-18-9-35.3-13.4-53.7-0.6-2.4-2.7-4.1-5.2-4.1h-24.9c2.5 0 4.7 1.7 5.3 4.2 4.3 17.8 8.4 34.4 13.6 55.6 6.7 27.1 27.1 37.7 50.6 37.7 22.6 0 36.5-12.9 30.6-37.3z"/>


	<path class="st0" d="m66.9 117.3c0.4 0.8 0.9 1.7 1.5 2.8 0.5 1.1 1.1 2.3 1.7 3.5s1.1 2.4 1.7 3.7c0.5 1.3 1.1 2.4 1.5 3.5 0.5-1.1 1-2.2 1.5-3.5s1.1-2.5 1.7-3.7 1.1-2.4 1.6-3.5 1-2 1.5-2.8h3.4c0.2 1.5 0.4 3.1 0.5 4.8s0.3 3.5 0.4 5.3 0.3 3.6 0.4 5.4 0.2 3.6 0.3 5.3h-3.7c-0.1-2.4-0.2-4.9-0.3-7.5s-0.3-5-0.5-7.4c-0.2 0.5-0.5 1-0.8 1.7s-0.6 1.3-1 2.1-0.7 1.5-1 2.3-0.7 1.6-1 2.3-0.6 1.5-0.9 2.1c-0.3 0.7-0.5 1.2-0.7 1.7h-2.8c-0.2-0.5-0.4-1-0.7-1.7s-0.6-1.4-0.9-2.1c-0.3-0.8-0.7-1.5-1-2.3-0.4-0.8-0.7-1.6-1-2.3s-0.7-1.4-1-2.1l-0.8-1.6c-0.2 2.4-0.4 4.9-0.5 7.4-0.1 2.6-0.2 5-0.3 7.5h-3.7c0.1-1.7 0.2-3.5 0.3-5.3s0.2-3.7 0.4-5.5c0.1-1.8 0.3-3.6 0.4-5.3 0.2-1.7 0.3-3.3 0.5-4.7h3.3z"/>
	<path class="st0" d="m87.8 130.3c0-1.4 0.2-2.6 0.6-3.6s1-1.9 1.6-2.6c0.7-0.7 1.5-1.2 2.3-1.6 0.9-0.3 1.8-0.5 2.7-0.5 2.2 0 3.8 0.7 5.1 2 1.2 1.3 1.8 3.3 1.8 6v0.7 0.7h-10.3c0.1 1.3 0.5 2.2 1.3 2.9s1.9 1 3.4 1c0.9 0 1.7-0.1 2.4-0.2 0.7-0.2 1.3-0.3 1.7-0.5l0.5 3c-0.2 0.1-0.5 0.2-0.8 0.3s-0.8 0.2-1.2 0.3-0.9 0.2-1.5 0.2c-0.5 0.1-1 0.1-1.6 0.1-1.4 0-2.6-0.2-3.6-0.6s-1.9-1-2.5-1.7c-0.7-0.7-1.2-1.6-1.5-2.6-0.2-1-0.4-2.1-0.4-3.3zm10.6-1.6c0-0.5-0.1-1-0.2-1.4s-0.3-0.8-0.6-1.2c-0.3-0.3-0.6-0.6-1-0.8s-0.9-0.3-1.4-0.3c-0.6 0-1 0.1-1.5 0.3s-0.8 0.5-1.1 0.8-0.5 0.7-0.7 1.2c-0.2 0.4-0.3 0.9-0.3 1.4h6.8z"/>
	<path class="st0" d="m119.1 137.6c-0.7 0.2-1.6 0.4-2.7 0.6s-2.2 0.3-3.4 0.3-2.4-0.2-3.3-0.6c-1-0.4-1.8-0.9-2.5-1.6s-1.2-1.6-1.6-2.6-0.6-2.1-0.6-3.4c0-1.2 0.2-2.4 0.5-3.4s0.8-1.9 1.4-2.6 1.3-1.3 2.2-1.7 1.8-0.6 3-0.6c0.8 0 1.4 0.1 2 0.3s1.1 0.4 1.5 0.6v-7.5l3.6-0.6v22.8zm-10.4-7.4c0 1.6 0.4 2.9 1.1 3.8s1.8 1.4 3.2 1.4c0.6 0 1.1 0 1.5-0.1s0.7-0.1 1-0.2v-9c-0.3-0.2-0.7-0.4-1.3-0.6-0.5-0.2-1.1-0.3-1.7-0.3-1.3 0-2.3 0.5-2.9 1.4-0.6 0.8-0.9 2-0.9 3.6z"/>
	<path class="st0" d="m135.9 138.5c-1.4 0-2.6-0.2-3.7-0.6-1-0.4-1.9-1-2.5-1.7s-1.2-1.6-1.5-2.6-0.5-2.1-0.5-3.3v-13h3.8v12.6c0 0.9 0.1 1.7 0.3 2.4s0.5 1.2 0.9 1.6 0.8 0.7 1.4 0.9c0.5 0.2 1.1 0.3 1.8 0.3s1.3-0.1 1.8-0.3 1-0.5 1.4-0.9 0.7-1 0.9-1.6c0.2-0.7 0.3-1.5 0.3-2.4v-12.6h3.8v13c0 1.2-0.2 2.3-0.5 3.3s-0.8 1.9-1.5 2.6-1.5 1.3-2.6 1.7c-1 0.4-2.2 0.6-3.6 0.6z"/>
	<path class="st0" d="m148.8 122.9c0.7-0.2 1.6-0.4 2.7-0.6s2.4-0.3 3.7-0.3 2.3 0.2 3.2 0.5c0.9 0.4 1.5 0.8 2.1 1.5 0.5 0.6 0.9 1.4 1.1 2.3s0.3 1.9 0.3 2.9v8.8h-3.6v-8.3c0-0.8-0.1-1.6-0.2-2.1-0.1-0.6-0.3-1.1-0.5-1.4s-0.6-0.6-1-0.8-1-0.3-1.6-0.3c-0.5 0-0.9 0-1.4 0.1s-0.9 0.1-1.1 0.1v12.7h-3.6v-15.1z"/>
	<path class="st0" d="m170.4 117.8c0 0.7-0.2 1.2-0.7 1.6-0.4 0.4-1 0.6-1.6 0.6s-1.2-0.2-1.6-0.6-0.7-0.9-0.7-1.6 0.2-1.2 0.7-1.6c0.4-0.4 1-0.6 1.6-0.6s1.1 0.2 1.6 0.6c0.5 0.3 0.7 0.9 0.7 1.6zm-0.4 20.3h-3.6v-15.7h3.6v15.7z"/>
	<path class="st0" d="m72.1 148.1c-2.1 0-3.8 0.7-4.9 2s-1.7 3.2-1.7 5.5c0 1.1 0.1 2.1 0.4 3.1 0.3 0.9 0.7 1.7 1.2 2.4s1.2 1.2 2 1.5c0.8 0.4 1.7 0.6 2.8 0.6 0.7 0 1.2 0 1.7-0.1 0.5 0 0.9-0.1 1.1-0.2v-7.5h3.8v10c-0.5 0.2-1.4 0.4-2.6 0.7-1.2 0.2-2.7 0.4-4.3 0.4-1.5 0-2.9-0.2-4.1-0.7s-2.3-1.2-3.2-2.1-1.5-2-2-3.4c-0.5-1.3-0.7-2.9-0.7-4.6s0.3-3.3 0.8-4.6 1.3-2.5 2.2-3.4 2-1.6 3.2-2.1 2.6-0.7 4-0.7c1 0 1.8 0.1 2.6 0.2s1.4 0.3 1.9 0.4 1 0.3 1.3 0.5 0.6 0.3 0.7 0.4l-1.1 3.1c-0.6-0.4-1.3-0.7-2.2-0.9-1-0.4-1.9-0.5-2.9-0.5z"/>
	<path class="st0" d="m91.6 153.6c-0.3-0.1-0.7-0.2-1.2-0.3s-1.1-0.2-1.8-0.2c-0.4 0-0.8 0-1.3 0.1s-0.8 0.2-0.9 0.2v12.6h-3.6v-14.9c0.7-0.3 1.6-0.5 2.6-0.7 1.1-0.2 2.2-0.3 3.5-0.3h0.8c0.3 0 0.6 0.1 1 0.1 0.3 0.1 0.6 0.1 0.9 0.2s0.5 0.1 0.7 0.2l-0.7 3z"/>
	<path class="st0" d="m100 150c1.2 0 2.2 0.2 3 0.5s1.5 0.7 2 1.3c0.5 0.5 0.8 1.2 1 2s0.3 1.6 0.3 2.5v9.5c-0.6 0.1-1.4 0.3-2.5 0.4-1.1 0.2-2.4 0.3-3.8 0.3-0.9 0-1.8-0.1-2.6-0.3s-1.4-0.5-2-0.9-1-0.9-1.3-1.6c-0.3-0.6-0.5-1.4-0.5-2.4 0-0.9 0.2-1.7 0.5-2.3s0.8-1.1 1.4-1.5 1.3-0.7 2.1-0.8c0.8-0.2 1.6-0.3 2.5-0.3 0.4 0 0.8 0 1.3 0.1 0.4 0 0.9 0.1 1.4 0.3v-0.6c0-0.4 0-0.8-0.1-1.2s-0.3-0.7-0.5-1c-0.3-0.3-0.6-0.5-1-0.7s-0.9-0.2-1.5-0.2c-0.8 0-1.6 0.1-2.3 0.2s-1.3 0.3-1.7 0.4l-0.5-2.9c0.5-0.2 1.1-0.3 2-0.5s1.8-0.3 2.8-0.3zm0.3 13.5c1.1 0 2-0.1 2.5-0.2v-4c-0.2-0.1-0.5-0.1-0.9-0.2s-0.8-0.1-1.3-0.1c-0.4 0-0.8 0-1.2 0.1s-0.8 0.2-1.1 0.3-0.6 0.4-0.8 0.7-0.3 0.7-0.3 1.1c0 0.9 0.3 1.5 0.8 1.8s1.4 0.5 2.3 0.5z"/>
	<path class="st0" d="m121.8 152.9c-0.4 0.4-0.9 1-1.6 1.8s-1.3 1.6-2.1 2.5-1.5 1.9-2.2 2.9-1.4 2-2 2.9h8.1v3h-12.5v-2.3c0.4-0.8 1-1.7 1.6-2.6 0.7-0.9 1.3-1.9 2-2.8s1.4-1.9 2.1-2.7c0.7-0.9 1.3-1.6 1.8-2.3h-7.2v-3h11.9v2.6z"/>

</svg>
